<svg width="34" height="28" viewBox="0 0 34 28" fill="none" xmlns="http://www.w3.org/2000/svg">
<path d="M30.3311 0.666626H3.66439C1.82605 0.666626 0.331055 2.16163 0.331055 3.99996V24C0.331055 25.8383 1.82605 27.3333 3.66439 27.3333H30.3311C32.1694 27.3333 33.6644 25.8383 33.6644 24V3.99996C33.6644 2.16163 32.1694 0.666626 30.3311 0.666626ZM7.83105 5.66663C8.4941 5.66663 9.12998 5.93002 9.59882 6.39886C10.0677 6.8677 10.3311 7.50358 10.3311 8.16663C10.3311 8.82967 10.0677 9.46555 9.59882 9.93439C9.12998 10.4032 8.4941 10.6666 7.83105 10.6666C7.16801 10.6666 6.53213 10.4032 6.06329 9.93439C5.59445 9.46555 5.33105 8.82967 5.33105 8.16663C5.33105 7.50358 5.59445 6.8677 6.06329 6.39886C6.53213 5.93002 7.16801 5.66663 7.83105 5.66663ZM16.9977 22.3333H5.33105L11.9977 14L14.4977 17.3333L19.4977 10.6666L28.6644 22.3333H16.9977Z" fill="#CECECE"/>
</svg>
