<svg width="22" height="22" viewBox="0 0 22 22" fill="none" xmlns="http://www.w3.org/2000/svg">
<path fill-rule="evenodd" clip-rule="evenodd" d="M10.7497 21.58C13.5123 21.58 16.1619 20.4839 18.1154 18.5329C20.0689 16.5818 21.1663 13.9356 21.1663 11.1764C21.1663 8.41714 20.0689 5.77093 18.1154 3.81987C16.1619 1.8688 13.5123 0.772705 10.7497 0.772705C7.987 0.772705 5.33748 1.8688 3.38398 3.81987C1.43048 5.77093 0.333008 8.41714 0.333008 11.1764C0.333008 13.9356 1.43048 16.5818 3.38398 18.5329C5.33748 20.4839 7.987 21.58 10.7497 21.58V21.58ZM10.1702 7.49347C9.97415 7.3628 9.74622 7.28775 9.51076 7.27633C9.27531 7.26491 9.04116 7.31754 8.83331 7.42861C8.62546 7.53968 8.4517 7.70503 8.33057 7.907C8.20943 8.10898 8.14547 8.34001 8.14551 8.57545V13.7773C8.14547 14.0127 8.20943 14.2438 8.33057 14.4457C8.4517 14.6477 8.62546 14.8131 8.83331 14.9241C9.04116 15.0352 9.27531 15.0878 9.51076 15.0764C9.74622 15.065 9.97415 14.9899 10.1702 14.8593L14.0765 12.2583C14.2548 12.1396 14.401 11.9787 14.5022 11.7899C14.6033 11.6012 14.6562 11.3904 14.6562 11.1764C14.6562 10.9623 14.6033 10.7515 14.5022 10.5628C14.401 10.374 14.2548 10.2131 14.0765 10.0944L10.1702 7.49347V7.49347Z" fill="white"/>
</svg>
