<svg width="15" height="15" viewBox="0 0 15 15" fill="none" xmlns="http://www.w3.org/2000/svg">
<path fill-rule="evenodd" clip-rule="evenodd" d="M7.83312 14.4756C3.99978 14.4756 0.888672 11.3753 0.888672 7.53978C0.888672 3.71123 3.99978 0.604004 7.83312 0.604004C11.6734 0.604004 14.7776 3.71123 14.7776 7.53978C14.7776 11.3753 11.6734 14.4756 7.83312 14.4756ZM10.0481 10.1129C10.1314 10.1615 10.2217 10.1892 10.3189 10.1892C10.4925 10.1892 10.6661 10.0991 10.7633 9.9326C10.9092 9.68985 10.8328 9.3708 10.5828 9.21822L8.11056 7.74783V4.5435C8.11056 4.2522 7.87444 4.02332 7.58972 4.02332C7.305 4.02332 7.06889 4.2522 7.06889 4.5435V8.04607C7.06889 8.2264 7.16611 8.39286 7.32583 8.48996L10.0481 10.1129Z" fill="#4A4E58"/>
</svg>
