<svg width="16" height="13" viewBox="0 0 16 13" fill="none" xmlns="http://www.w3.org/2000/svg">
<path fill-rule="evenodd" clip-rule="evenodd" d="M10.6379 3.9269C10.6379 5.55659 9.33712 6.86334 7.71482 6.86334C6.09253 6.86334 4.79171 5.55659 4.79171 3.9269C4.79171 2.29659 6.09253 0.991089 7.71482 0.991089C9.33712 0.991089 10.6379 2.29659 10.6379 3.9269ZM7.71468 12.0884C5.33192 12.0884 3.29736 11.7111 3.29736 10.202C3.29736 8.69222 5.31886 8.30119 7.71468 8.30119C10.0975 8.30119 12.132 8.67848 12.132 10.1882C12.132 11.6974 10.1105 12.0884 7.71468 12.0884ZM11.8872 3.97983C11.8872 4.8106 11.6391 5.58453 11.2038 6.22791C11.1591 6.29412 11.1989 6.38345 11.2778 6.39719C11.3867 6.41593 11.4992 6.42655 11.6136 6.42967C12.7546 6.45965 13.7788 5.72195 14.0617 4.61134C14.4808 2.96166 13.2502 1.48064 11.6833 1.48064C11.5129 1.48064 11.35 1.49876 11.1914 1.53124C11.1696 1.53623 11.1466 1.54623 11.1342 1.56559C11.1193 1.58933 11.1305 1.62119 11.1454 1.6418C11.6161 2.30454 11.8872 3.11283 11.8872 3.97983ZM13.7765 7.5888C14.5432 7.73934 15.0475 8.04667 15.2564 8.49328C15.433 8.85995 15.433 9.28533 15.2564 9.65137C14.9368 10.3441 13.9065 10.5665 13.506 10.6239C13.4233 10.6364 13.3568 10.5646 13.3655 10.4815C13.5701 8.56199 11.9428 7.65189 11.5218 7.44264C11.5038 7.43327 11.5001 7.4189 11.5019 7.41016C11.5032 7.40391 11.5106 7.39392 11.5243 7.39204C12.4353 7.37518 13.4146 7.50011 13.7765 7.5888ZM3.88699 6.42967C4.0014 6.42655 4.11332 6.41655 4.22276 6.39719C4.30173 6.38345 4.34153 6.29412 4.29676 6.22791C3.86149 5.58453 3.61339 4.8106 3.61339 3.97983C3.61339 3.11283 3.8845 2.30454 4.35521 1.6418C4.37013 1.62119 4.3807 1.58933 4.3664 1.56559C4.35396 1.54685 4.33033 1.53623 4.30919 1.53124C4.15001 1.49876 3.9871 1.48064 3.81672 1.48064C2.24977 1.48064 1.01921 2.96166 1.43893 4.61134C1.72185 5.72195 2.74597 6.45965 3.88699 6.42967ZM3.99809 7.40979C3.99996 7.41916 3.99623 7.4329 3.97882 7.44289C3.55723 7.65215 1.92996 8.56225 2.13453 10.4811C2.14324 10.5648 2.07733 10.6361 1.99463 10.6242C1.59418 10.5667 0.563848 10.3443 0.244239 9.65162C0.0670243 9.28496 0.0670243 8.8602 0.244239 8.49354C0.453167 8.04692 0.956831 7.7396 1.72352 7.58843C2.08603 7.50036 3.06476 7.37543 3.97633 7.3923C3.99001 7.39417 3.99685 7.40416 3.99809 7.40979Z" fill="#4A4E58"/>
</svg>
